<svg id="Ebene_1" data-name="Ebene 1" xmlns="http://www.w3.org/2000/svg" xmlns:xlink="http://www.w3.org/1999/xlink" viewBox="0 0 344.29 34.45"><defs><style>.cls-1{fill:none;}.cls-2{clip-path:url(#clip-path);}.cls-3{fill:#252a2c;}.cls-4{fill:#c01819;}</style><clipPath id="clip-path"><rect class="cls-1" width="344.29" height="34.45"/></clipPath></defs><g class="cls-2"><path class="cls-3" d="M33.29.83V3.57h-30V15.81H24.42v2.74H3.31v15H.56V.83H33.29Z"/><path class="cls-3" d="M71.74,30.81H74.2v2.74H41.47V.83h2.75v30H71.74Z"/><path class="cls-3" d="M106.8.83h2.74V17.19a16.36,16.36,0,1,1-32.72,0V.83h2.74V17.19a13.62,13.62,0,1,0,27.24,0Z"/><path class="cls-3" d="M125.67,3.57V30.81h2.75v2.74h-8.25V30.81h2.75V3.57h-2.75V.83h8.25V3.57Z"/><path class="cls-3" d="M171.77,17.19a16.36,16.36,0,0,1-16.36,16.36H139V15.82h2.75v15h13.62a13.62,13.62,0,0,0,0-27.24H139V.83h16.37A16.36,16.36,0,0,1,171.77,17.19Z"/><path class="cls-4" d="M213.5.83,199.08,17.19,213.5,33.55h-3.89L197.13,19.39,184.66,33.55h-3.89l14.42-16.36L180.77.83h3.89L197.13,15,209.61.83Z"/><path class="cls-3" d="M255.22,30.81h2.46v2.74H225V.83h2.75v30h27.52Z"/><path class="cls-3" d="M284.27.83l18.37,32.72h-3.35l-15-26.78L269.21,33.55h-3.35Z"/><path class="cls-3" d="M343.55,24.68a8.86,8.86,0,0,1-8.87,8.87H310.83V30.81h23.85a6.13,6.13,0,1,0,0-12.25H310.83V15.82h23.86a6.13,6.13,0,1,0,0-12.25H310.83V.83h23.85a8.87,8.87,0,0,1,4.74,16.36A8.8,8.8,0,0,1,343.55,24.68Z"/></g></svg>